<mxfile host="app.diagrams.net" agent="Mozilla/5.0 (Windows NT 10.0; Win64; x64) AppleWebKit/537.36 (KHTML, like Gecko) Chrome/136.0.0.0 Safari/537.36" version="27.0.9">
  <diagram name="GCash Use Case Diagram" id="jl7bqBdHWChl8bQ9rKeO">
    <mxGraphModel dx="330672" dy="213883" grid="1" gridSize="10" guides="1" tooltips="1" connect="1" arrows="1" fold="1" page="1" pageScale="1" pageWidth="850" pageHeight="1100" math="0" shadow="0">
      <root>
        <mxCell id="0" />
        <mxCell id="1" parent="0" />
        <mxCell id="9kK1TR9snKwjTDDUv5EE-1" value="Customer" style="shape=umlActor;" vertex="1" parent="1">
          <mxGeometry x="20" y="110" width="10" height="100" as="geometry" />
        </mxCell>
        <mxCell id="9kK1TR9snKwjTDDUv5EE-2" value="Software Engineer" style="shape=umlActor;" vertex="1" parent="1">
          <mxGeometry x="60" y="450" width="40" height="80" as="geometry" />
        </mxCell>
        <mxCell id="9kK1TR9snKwjTDDUv5EE-3" value="Check Balance" style="ellipse;" vertex="1" parent="1">
          <mxGeometry x="220" y="20" width="160" height="60" as="geometry" />
        </mxCell>
        <mxCell id="9kK1TR9snKwjTDDUv5EE-4" value="Deposit Funds" style="ellipse;" vertex="1" parent="1">
          <mxGeometry x="220" y="100" width="160" height="60" as="geometry" />
        </mxCell>
        <mxCell id="9kK1TR9snKwjTDDUv5EE-5" value="Withdraw Cash" style="ellipse;" vertex="1" parent="1">
          <mxGeometry x="220" y="180" width="160" height="60" as="geometry" />
        </mxCell>
        <mxCell id="9kK1TR9snKwjTDDUv5EE-6" value="Transfer Funds" style="ellipse;" vertex="1" parent="1">
          <mxGeometry x="220" y="260" width="160" height="60" as="geometry" />
        </mxCell>
        <mxCell id="9kK1TR9snKwjTDDUv5EE-7" value="Customer Authentication" style="ellipse;" vertex="1" parent="1">
          <mxGeometry x="440" y="140" width="180" height="60" as="geometry" />
        </mxCell>
        <mxCell id="9kK1TR9snKwjTDDUv5EE-8" value="&lt;&lt;abstract&gt;&gt; GCash Transaction" style="ellipse;fontStyle=2;" vertex="1" parent="1">
          <mxGeometry x="160" y="350" width="200" height="60" as="geometry" />
        </mxCell>
        <mxCell id="9kK1TR9snKwjTDDUv5EE-9" value="GCash App Help" style="ellipse;" vertex="1" parent="1">
          <mxGeometry x="440" y="340" width="160" height="60" as="geometry" />
        </mxCell>
        <mxCell id="9kK1TR9snKwjTDDUv5EE-87" style="edgeStyle=orthogonalEdgeStyle;rounded=0;orthogonalLoop=1;jettySize=auto;html=1;exitX=0.5;exitY=1;exitDx=0;exitDy=0;entryX=0.5;entryY=0;entryDx=0;entryDy=0;" edge="1" parent="1" source="9kK1TR9snKwjTDDUv5EE-10" target="9kK1TR9snKwjTDDUv5EE-11">
          <mxGeometry relative="1" as="geometry" />
        </mxCell>
        <mxCell id="9kK1TR9snKwjTDDUv5EE-10" value="Maintenance" style="ellipse;" vertex="1" parent="1">
          <mxGeometry x="220" y="450" width="160" height="60" as="geometry" />
        </mxCell>
        <mxCell id="9kK1TR9snKwjTDDUv5EE-11" value="Bug Fixes" style="ellipse;" vertex="1" parent="1">
          <mxGeometry x="220" y="530" width="160" height="60" as="geometry" />
        </mxCell>
        <mxCell id="9kK1TR9snKwjTDDUv5EE-12" value="Software Updates" style="ellipse;" vertex="1" parent="1">
          <mxGeometry x="440" y="450" width="160" height="60" as="geometry" />
        </mxCell>
        <mxCell id="9kK1TR9snKwjTDDUv5EE-13" value="Diagnostics" style="ellipse;" vertex="1" parent="1">
          <mxGeometry x="440" y="530" width="160" height="60" as="geometry" />
        </mxCell>
        <mxCell id="9kK1TR9snKwjTDDUv5EE-14" style="endArrow=none;" edge="1" parent="1" source="9kK1TR9snKwjTDDUv5EE-1" target="9kK1TR9snKwjTDDUv5EE-3" />
        <mxCell id="9kK1TR9snKwjTDDUv5EE-15" style="endArrow=none;" edge="1" parent="1" source="9kK1TR9snKwjTDDUv5EE-1" target="9kK1TR9snKwjTDDUv5EE-4" />
        <mxCell id="9kK1TR9snKwjTDDUv5EE-16" style="endArrow=none;" edge="1" parent="1" source="9kK1TR9snKwjTDDUv5EE-1" target="9kK1TR9snKwjTDDUv5EE-5" />
        <mxCell id="9kK1TR9snKwjTDDUv5EE-17" style="endArrow=none;" edge="1" parent="1" source="9kK1TR9snKwjTDDUv5EE-1" target="9kK1TR9snKwjTDDUv5EE-6" />
        <mxCell id="9kK1TR9snKwjTDDUv5EE-18" value="&lt;&lt;include&gt;&gt;" style="dashed=1;endArrow=block;" edge="1" parent="1" source="9kK1TR9snKwjTDDUv5EE-3" target="9kK1TR9snKwjTDDUv5EE-7" />
        <mxCell id="9kK1TR9snKwjTDDUv5EE-19" value="&lt;&lt;include&gt;&gt;" style="dashed=1;endArrow=block;" edge="1" parent="1" source="9kK1TR9snKwjTDDUv5EE-4" target="9kK1TR9snKwjTDDUv5EE-7" />
        <mxCell id="9kK1TR9snKwjTDDUv5EE-20" value="&lt;&lt;include&gt;&gt;" style="dashed=1;endArrow=block;" edge="1" parent="1" source="9kK1TR9snKwjTDDUv5EE-5" target="9kK1TR9snKwjTDDUv5EE-7" />
        <mxCell id="9kK1TR9snKwjTDDUv5EE-21" value="&lt;&lt;include&gt;&gt;" style="dashed=1;endArrow=block;" edge="1" parent="1" source="9kK1TR9snKwjTDDUv5EE-6" target="9kK1TR9snKwjTDDUv5EE-7" />
        <mxCell id="9kK1TR9snKwjTDDUv5EE-22" value="&lt;&lt;extend&gt;&gt; [menu]" style="dashed=1;endArrow=block;" edge="1" parent="1" source="9kK1TR9snKwjTDDUv5EE-9" target="9kK1TR9snKwjTDDUv5EE-8" />
        <mxCell id="9kK1TR9snKwjTDDUv5EE-23" style="endArrow=none;" edge="1" parent="1" source="9kK1TR9snKwjTDDUv5EE-2" target="9kK1TR9snKwjTDDUv5EE-10" />
        <mxCell id="9kK1TR9snKwjTDDUv5EE-24" style="endArrow=none;" edge="1" parent="1" source="9kK1TR9snKwjTDDUv5EE-2" target="9kK1TR9snKwjTDDUv5EE-11" />
        <mxCell id="9kK1TR9snKwjTDDUv5EE-25" value="&lt;&lt;include&gt;&gt;" style="dashed=1;endArrow=block;" edge="1" parent="1" source="9kK1TR9snKwjTDDUv5EE-10" target="9kK1TR9snKwjTDDUv5EE-12" />
        <mxCell id="9kK1TR9snKwjTDDUv5EE-26" value="&lt;&lt;include&gt;&gt;" style="dashed=1;endArrow=block;" edge="1" parent="1" source="9kK1TR9snKwjTDDUv5EE-10" target="9kK1TR9snKwjTDDUv5EE-13" />
        <mxCell id="9kK1TR9snKwjTDDUv5EE-27" value="&lt;&lt;include&gt;&gt;" style="dashed=1;endArrow=block;" edge="1" parent="1" source="9kK1TR9snKwjTDDUv5EE-11" target="9kK1TR9snKwjTDDUv5EE-13" />
        <mxCell id="9kK1TR9snKwjTDDUv5EE-54" value="" style="endArrow=classic;html=1;rounded=0;entryX=0.5;entryY=0;entryDx=0;entryDy=0;exitX=0.5;exitY=1;exitDx=0;exitDy=0;" edge="1" parent="1" source="9kK1TR9snKwjTDDUv5EE-4" target="9kK1TR9snKwjTDDUv5EE-5">
          <mxGeometry relative="1" as="geometry">
            <mxPoint x="350" y="160" as="sourcePoint" />
            <mxPoint x="510" y="160" as="targetPoint" />
          </mxGeometry>
        </mxCell>
        <mxCell id="9kK1TR9snKwjTDDUv5EE-55" value="Label" style="edgeLabel;resizable=0;html=1;;align=center;verticalAlign=middle;" connectable="0" vertex="1" parent="9kK1TR9snKwjTDDUv5EE-54">
          <mxGeometry relative="1" as="geometry" />
        </mxCell>
        <mxCell id="9kK1TR9snKwjTDDUv5EE-56" value="Source" style="edgeLabel;resizable=0;html=1;;align=left;verticalAlign=bottom;" connectable="0" vertex="1" parent="9kK1TR9snKwjTDDUv5EE-54">
          <mxGeometry x="-1" relative="1" as="geometry" />
        </mxCell>
        <mxCell id="9kK1TR9snKwjTDDUv5EE-61" value="" style="endArrow=classic;startArrow=classic;html=1;rounded=0;entryX=0.5;entryY=1;entryDx=0;entryDy=0;exitX=0.5;exitY=0;exitDx=0;exitDy=0;" edge="1" parent="1" source="9kK1TR9snKwjTDDUv5EE-4" target="9kK1TR9snKwjTDDUv5EE-3">
          <mxGeometry width="50" height="50" relative="1" as="geometry">
            <mxPoint x="410" y="280" as="sourcePoint" />
            <mxPoint x="460" y="230" as="targetPoint" />
          </mxGeometry>
        </mxCell>
        <mxCell id="9kK1TR9snKwjTDDUv5EE-69" value="" style="endArrow=classic;startArrow=classic;html=1;rounded=0;entryX=0.5;entryY=1;entryDx=0;entryDy=0;exitX=0.5;exitY=0;exitDx=0;exitDy=0;" edge="1" parent="1">
          <mxGeometry width="50" height="50" relative="1" as="geometry">
            <mxPoint x="299.5" y="260" as="sourcePoint" />
            <mxPoint x="299.5" y="240" as="targetPoint" />
            <Array as="points">
              <mxPoint x="299.5" y="240" />
            </Array>
          </mxGeometry>
        </mxCell>
        <mxCell id="9kK1TR9snKwjTDDUv5EE-70" value="" style="endArrow=classic;startArrow=classic;html=1;rounded=0;entryX=0.5;entryY=1;entryDx=0;entryDy=0;" edge="1" parent="1" source="9kK1TR9snKwjTDDUv5EE-5">
          <mxGeometry width="50" height="50" relative="1" as="geometry">
            <mxPoint x="340" y="180" as="sourcePoint" />
            <mxPoint x="340" y="160" as="targetPoint" />
            <Array as="points">
              <mxPoint x="340" y="160" />
            </Array>
          </mxGeometry>
        </mxCell>
        <mxCell id="9kK1TR9snKwjTDDUv5EE-74" value="" style="endArrow=none;html=1;rounded=0;entryX=0.5;entryY=1;entryDx=0;entryDy=0;" edge="1" parent="1" source="9kK1TR9snKwjTDDUv5EE-8" target="9kK1TR9snKwjTDDUv5EE-7">
          <mxGeometry width="50" height="50" relative="1" as="geometry">
            <mxPoint x="410" y="380" as="sourcePoint" />
            <mxPoint x="460" y="330" as="targetPoint" />
          </mxGeometry>
        </mxCell>
        <mxCell id="9kK1TR9snKwjTDDUv5EE-75" value="" style="endArrow=none;html=1;rounded=0;entryX=0.211;entryY=0.9;entryDx=0;entryDy=0;entryPerimeter=0;exitX=1;exitY=0.4;exitDx=0;exitDy=0;exitPerimeter=0;" edge="1" parent="1" source="9kK1TR9snKwjTDDUv5EE-6" target="9kK1TR9snKwjTDDUv5EE-7">
          <mxGeometry width="50" height="50" relative="1" as="geometry">
            <mxPoint x="410" y="380" as="sourcePoint" />
            <mxPoint x="460" y="330" as="targetPoint" />
          </mxGeometry>
        </mxCell>
        <mxCell id="9kK1TR9snKwjTDDUv5EE-76" value="" style="endArrow=none;html=1;rounded=0;entryX=0.006;entryY=0.7;entryDx=0;entryDy=0;entryPerimeter=0;exitX=1;exitY=0.5;exitDx=0;exitDy=0;" edge="1" parent="1" source="9kK1TR9snKwjTDDUv5EE-5" target="9kK1TR9snKwjTDDUv5EE-7">
          <mxGeometry width="50" height="50" relative="1" as="geometry">
            <mxPoint x="410" y="380" as="sourcePoint" />
            <mxPoint x="460" y="330" as="targetPoint" />
          </mxGeometry>
        </mxCell>
        <mxCell id="9kK1TR9snKwjTDDUv5EE-77" value="" style="endArrow=none;html=1;rounded=0;entryX=0;entryY=0.333;entryDx=0;entryDy=0;entryPerimeter=0;exitX=1;exitY=0.5;exitDx=0;exitDy=0;" edge="1" parent="1" source="9kK1TR9snKwjTDDUv5EE-4" target="9kK1TR9snKwjTDDUv5EE-7">
          <mxGeometry width="50" height="50" relative="1" as="geometry">
            <mxPoint x="380" y="180" as="sourcePoint" />
            <mxPoint x="430" y="130" as="targetPoint" />
          </mxGeometry>
        </mxCell>
        <mxCell id="9kK1TR9snKwjTDDUv5EE-78" value="" style="endArrow=none;html=1;rounded=0;entryX=0.256;entryY=0.05;entryDx=0;entryDy=0;entryPerimeter=0;exitX=1;exitY=0.5;exitDx=0;exitDy=0;" edge="1" parent="1" source="9kK1TR9snKwjTDDUv5EE-3" target="9kK1TR9snKwjTDDUv5EE-7">
          <mxGeometry width="50" height="50" relative="1" as="geometry">
            <mxPoint x="410" y="180" as="sourcePoint" />
            <mxPoint x="460" y="130" as="targetPoint" />
          </mxGeometry>
        </mxCell>
        <mxCell id="9kK1TR9snKwjTDDUv5EE-80" value="" style="endArrow=classic;html=1;rounded=0;entryX=0.456;entryY=0;entryDx=0;entryDy=0;entryPerimeter=0;" edge="1" parent="1" target="9kK1TR9snKwjTDDUv5EE-7">
          <mxGeometry width="50" height="50" relative="1" as="geometry">
            <mxPoint x="50" y="160" as="sourcePoint" />
            <mxPoint x="460" y="130" as="targetPoint" />
            <Array as="points">
              <mxPoint x="290" y="-70" />
            </Array>
          </mxGeometry>
        </mxCell>
        <mxCell id="9kK1TR9snKwjTDDUv5EE-81" value="" style="endArrow=none;html=1;rounded=0;entryX=0.5;entryY=1;entryDx=0;entryDy=0;exitX=0.545;exitY=-0.017;exitDx=0;exitDy=0;exitPerimeter=0;" edge="1" parent="1" source="9kK1TR9snKwjTDDUv5EE-8" target="9kK1TR9snKwjTDDUv5EE-6">
          <mxGeometry width="50" height="50" relative="1" as="geometry">
            <mxPoint x="360" y="280" as="sourcePoint" />
            <mxPoint x="410" y="230" as="targetPoint" />
          </mxGeometry>
        </mxCell>
        <mxCell id="9kK1TR9snKwjTDDUv5EE-82" value="" style="endArrow=classic;html=1;rounded=0;entryX=0.013;entryY=0.717;entryDx=0;entryDy=0;entryPerimeter=0;" edge="1" parent="1" target="9kK1TR9snKwjTDDUv5EE-9">
          <mxGeometry width="50" height="50" relative="1" as="geometry">
            <mxPoint x="360" y="380" as="sourcePoint" />
            <mxPoint x="410" y="330" as="targetPoint" />
          </mxGeometry>
        </mxCell>
        <mxCell id="9kK1TR9snKwjTDDUv5EE-84" value="" style="endArrow=classic;html=1;rounded=0;" edge="1" parent="1" target="9kK1TR9snKwjTDDUv5EE-12">
          <mxGeometry width="50" height="50" relative="1" as="geometry">
            <mxPoint x="360" y="380" as="sourcePoint" />
            <mxPoint x="410" y="330" as="targetPoint" />
          </mxGeometry>
        </mxCell>
        <mxCell id="9kK1TR9snKwjTDDUv5EE-85" value="" style="endArrow=classic;html=1;rounded=0;entryX=0.094;entryY=0.183;entryDx=0;entryDy=0;entryPerimeter=0;" edge="1" parent="1" target="9kK1TR9snKwjTDDUv5EE-13">
          <mxGeometry width="50" height="50" relative="1" as="geometry">
            <mxPoint x="360" y="380" as="sourcePoint" />
            <mxPoint x="410" y="330" as="targetPoint" />
          </mxGeometry>
        </mxCell>
        <mxCell id="9kK1TR9snKwjTDDUv5EE-88" value="" style="endArrow=classic;html=1;rounded=0;exitX=1;exitY=0.3333333333333333;exitDx=0;exitDy=0;exitPerimeter=0;" edge="1" parent="1" source="9kK1TR9snKwjTDDUv5EE-2">
          <mxGeometry width="50" height="50" relative="1" as="geometry">
            <mxPoint x="360" y="380" as="sourcePoint" />
            <mxPoint x="210" y="477" as="targetPoint" />
          </mxGeometry>
        </mxCell>
      </root>
    </mxGraphModel>
  </diagram>
</mxfile>
